c3dfile
version=1
nRows=16
nColumns=46
inDegrees=yes
endheader
time	ground_force1_vx	ground_force1_vy	ground_force1_vz	ground_force1_px	ground_force1_py	ground_force1_pz	ground_torque1_x	ground_torque1_y	ground_torque1_z	ground_force2_vx	ground_force2_vy	ground_force2_vz	ground_force2_px	ground_force2_py	ground_force2_pz	ground_torque2_x	ground_torque2_y	ground_torque2_z	ground_force3_vx	ground_force3_vy	ground_force3_vz	ground_force3_px	ground_force3_py	ground_force3_pz	ground_torque3_x	ground_torque3_y	ground_torque3_z	ground_force4_vx	ground_force4_vy	ground_force4_vz	ground_force4_px	ground_force4_py	ground_force4_pz	ground_torque4_x	ground_torque4_y	ground_torque4_z	ground_force5_vx	ground_force5_vy	ground_force5_vz	ground_force5_px	ground_force5_py	ground_force5_pz	ground_torque5_x	ground_torque5_y	ground_torque5_z
4.366000	-0.000000	-0.000000	0.000000	0.200000	0.000000	0.940000	0.000000	0.000000	-0.000000	-0.000000	-0.000000	0.000000	0.400000	0.000000	0.320000	0.000000	0.000000	-0.000000	-0.584807	383.153107	10.808086	0.098247	0.000000	-0.564100	-0.000004	0.118262	0.000005	44.436749	288.976471	28.631741	0.107895	0.000000	-0.652877	-0.000005	-0.345128	0.000003	-0.000000	-0.000000	0.000000	0.200000	0.000000	-1.540000	0.000000	0.000000	-0.000000	
4.366500	-0.000000	-0.000000	0.000000	0.200000	0.000000	0.940000	0.000000	0.000000	-0.000000	-0.000000	-0.000000	0.000000	0.400000	0.000000	0.320000	0.000000	0.000000	-0.000000	-1.067425	382.995789	10.646448	0.098164	0.000000	-0.563430	0.000007	0.158532	0.000003	44.680630	289.141632	28.871523	0.107209	0.000000	-0.652177	0.000014	-0.225584	0.000004	-0.000000	-0.000000	0.000000	0.200000	0.000000	-1.540000	0.000000	0.000000	-0.000000	
4.367000	-0.000000	-0.000000	0.000000	0.200000	0.000000	0.940000	0.000000	0.000000	-0.000000	-0.000000	-0.000000	0.000000	0.400000	0.000000	0.320000	0.000000	0.000000	-0.000000	-1.550044	382.838470	10.484810	0.098082	0.000000	-0.562759	0.000000	0.198128	0.000003	44.924507	289.306793	29.111305	0.106524	0.000000	-0.651477	0.000021	-0.105428	0.000002	-0.000000	-0.000000	0.000000	0.200000	0.000000	-1.540000	0.000000	0.000000	-0.000000	
4.367500	-0.000000	-0.000000	0.000000	0.200000	0.000000	0.940000	0.000000	0.000000	-0.000000	-0.000000	-0.000000	0.000000	0.400000	0.000000	0.320000	0.000000	0.000000	-0.000000	-1.871789	383.001160	10.162212	0.098947	0.000000	-0.562042	0.000001	0.303959	0.000003	45.084003	291.229858	29.352617	0.107544	0.000000	-0.653226	0.000011	-0.255346	0.000001	-0.000000	-0.000000	0.000000	0.200000	0.000000	-1.540000	0.000000	0.000000	-0.000000	
4.368000	-0.000000	-0.000000	0.000000	0.200000	0.000000	0.940000	0.000000	0.000000	-0.000000	-0.000000	-0.000000	0.000000	0.400000	0.000000	0.320000	0.000000	0.000000	-0.000000	-2.193533	383.163879	9.839615	0.099812	0.000000	-0.561325	0.000012	0.409896	0.000003	45.243504	293.152924	29.593929	0.108551	0.000000	-0.654953	-0.000005	-0.404878	0.000001	-0.000000	-0.000000	0.000000	0.200000	0.000000	-1.540000	0.000000	0.000000	-0.000000	
4.368500	-0.000000	-0.000000	0.000000	0.200000	0.000000	0.940000	0.000000	0.000000	-0.000000	-0.000000	-0.000000	0.000000	0.400000	0.000000	0.320000	0.000000	0.000000	-0.000000	-2.354407	382.217590	9.597752	0.099834	0.000000	-0.560559	0.000021	0.338814	0.000002	45.323254	294.915344	30.238110	0.109312	0.000000	-0.656183	0.000013	-0.451852	0.000001	-0.000000	-0.000000	0.000000	0.200000	0.000000	-1.540000	0.000000	0.000000	-0.000000	
4.369000	-0.000000	-0.000000	0.000000	0.200000	0.000000	0.940000	0.000000	0.000000	-0.000000	-0.000000	-0.000000	0.000000	0.400000	0.000000	0.320000	0.000000	0.000000	-0.000000	-2.515280	381.271301	9.355888	0.099856	0.000000	-0.559790	0.000031	0.267487	0.000002	45.403004	296.677795	30.882290	0.110065	0.000000	-0.657399	0.000007	-0.499052	0.000001	-0.000000	-0.000000	0.000000	0.200000	0.000000	-1.540000	0.000000	0.000000	-0.000000	
4.369500	-0.000000	-0.000000	0.000000	0.200000	0.000000	0.940000	0.000000	0.000000	-0.000000	-0.000000	-0.000000	0.000000	0.400000	0.000000	0.320000	0.000000	0.000000	-0.000000	-2.997900	379.850647	8.629793	0.099051	0.000000	-0.562144	0.000028	0.337207	0.000001	45.401459	297.001221	30.558161	0.109615	0.000000	-0.657532	0.000016	-0.663040	0.000004	-0.000000	-0.000000	0.000000	0.200000	0.000000	-1.540000	0.000000	0.000000	-0.000000	
4.370000	-0.000000	-0.000000	0.000000	0.200000	0.000000	0.940000	0.000000	0.000000	-0.000000	-0.000000	-0.000000	0.000000	0.400000	0.000000	0.320000	0.000000	0.000000	-0.000000	-3.480519	378.429962	7.903698	0.098240	0.000000	-0.564516	0.000012	0.408140	0.000002	45.399914	297.324677	30.234032	0.109166	0.000000	-0.657664	0.000004	-0.827334	0.000001	-0.000000	-0.000000	0.000000	0.200000	0.000000	-1.540000	0.000000	0.000000	-0.000000	
4.370500	-0.000000	-0.000000	0.000000	0.200000	0.000000	0.940000	0.000000	0.000000	-0.000000	-0.000000	-0.000000	0.000000	0.400000	0.000000	0.320000	0.000000	0.000000	-0.000000	-3.560955	378.115204	7.500538	0.098299	0.000000	-0.564155	-0.000003	0.283676	0.000001	45.722771	298.135010	30.796923	0.108073	0.000000	-0.656414	0.000003	-0.661541	0.000002	-0.000000	-0.000000	0.000000	0.200000	0.000000	-1.540000	0.000000	0.000000	-0.000000	
4.371000	-0.000000	-0.000000	0.000000	0.200000	0.000000	0.940000	0.000000	0.000000	-0.000000	-0.000000	-0.000000	0.000000	0.400000	0.000000	0.320000	0.000000	0.000000	-0.000000	-3.641391	377.800446	7.097378	0.098358	0.000000	-0.563793	0.000022	0.159199	0.000003	46.045628	298.945343	31.359814	0.106986	0.000000	-0.655172	0.000021	-0.494213	0.000005	-0.000000	-0.000000	0.000000	0.200000	0.000000	-1.540000	0.000000	0.000000	-0.000000	
4.371500	-0.000000	-0.000000	0.000000	0.200000	0.000000	0.940000	0.000000	0.000000	-0.000000	-0.000000	-0.000000	0.000000	0.400000	0.000000	0.320000	0.000000	0.000000	-0.000000	-3.641391	377.329041	6.613142	0.098358	0.000000	-0.563971	0.000027	0.136207	0.000002	46.449780	299.424347	31.439569	0.107511	0.000000	-0.654658	-0.000000	-0.417131	0.000005	-0.000000	-0.000000	0.000000	0.200000	0.000000	-1.540000	0.000000	0.000000	-0.000000	
4.372000	-0.000000	-0.000000	0.000000	0.200000	0.000000	0.940000	0.000000	0.000000	-0.000000	-0.000000	-0.000000	0.000000	0.400000	0.000000	0.320000	0.000000	0.000000	-0.000000	-3.641391	376.857605	6.128907	0.098358	0.000000	-0.564150	0.000006	0.113217	0.000004	46.853931	299.903351	31.519325	0.108034	0.000000	-0.654145	0.000018	-0.339750	0.000002	-0.000000	-0.000000	0.000000	0.200000	0.000000	-1.540000	0.000000	0.000000	-0.000000	
4.372500	-0.000000	-0.000000	0.000000	0.200000	0.000000	0.940000	0.000000	0.000000	-0.000000	-0.000000	-0.000000	0.000000	0.400000	0.000000	0.320000	0.000000	0.000000	-0.000000	-4.204446	376.385498	5.887557	0.098700	0.000000	-0.563033	0.000000	0.346685	0.000004	47.014973	300.705780	31.519325	0.108055	0.000000	-0.653709	0.000006	-0.309308	0.000004	-0.000000	-0.000000	0.000000	0.200000	0.000000	-1.540000	0.000000	0.000000	-0.000000	
4.373000	-0.000000	-0.000000	0.000000	0.200000	0.000000	0.940000	0.000000	0.000000	-0.000000	-0.000000	-0.000000	0.000000	0.400000	0.000000	0.320000	0.000000	0.000000	-0.000000	-4.767501	375.913391	5.646206	0.099042	0.000000	-0.561913	0.000018	0.579042	0.000001	47.176018	301.508209	31.519325	0.108077	0.000000	-0.653275	0.000001	-0.278835	0.000002	-0.000000	-0.000000	0.000000	0.200000	0.000000	-1.540000	0.000000	0.000000	-0.000000	
4.373500	-0.000000	-0.000000	0.000000	0.200000	0.000000	0.940000	0.000000	0.000000	-0.000000	-0.000000	-0.000000	0.000000	0.400000	0.000000	0.320000	0.000000	0.000000	-0.000000	-5.089247	375.285004	5.162140	0.099165	0.000000	-0.562609	0.000011	0.469233	0.000003	47.498875	302.474426	31.599594	0.107786	0.000000	-0.653469	0.000018	-0.227025	0.000003	-0.000000	-0.000000	0.000000	0.200000	0.000000	-1.540000	0.000000	0.000000	-0.000000	
